<svg width="185" height="100" viewBox="0 0 185 100" fill="none" xmlns="http://www.w3.org/2000/svg">
<g clip-path="url(#clip0_219_5982)">
<path d="M165.738 99.5904H43.3348C41.4865 99.5904 39.9844 98.0844 39.9844 96.2313V27.1794C39.9844 25.3263 41.4865 23.8203 43.3348 23.8203H165.738C167.586 23.8203 169.088 25.3263 169.088 27.1794V96.2313C169.088 98.0844 167.586 99.5904 165.738 99.5904ZM43.3348 26.0069C42.6887 26.0069 42.1653 26.5317 42.1653 27.1794V96.2313C42.1653 96.879 42.6887 97.4038 43.3348 97.4038H165.738C166.384 97.4038 166.907 96.879 166.907 96.2313V27.1794C166.907 26.5317 166.384 26.0069 165.738 26.0069H43.3348Z" fill="#D5D5D6"/>
<path d="M73.9976 57.6299H68.0928V72.6844H73.9976V57.6299Z" fill="#2962FF"/>
<path d="M83.5669 56.1836H77.6621V72.684H83.5669V56.1836Z" fill="#2962FF"/>
<path d="M93.1352 61.8311H87.2305V72.6846H93.1352V61.8311Z" fill="#2962FF"/>
<path d="M102.704 58.4795H96.7988V72.684H102.704V58.4795Z" fill="#2962FF"/>
<path d="M112.273 61.3496H106.368V72.6815H112.273V61.3496Z" fill="#2962FF"/>
<path d="M121.841 52.8936H115.937V72.6847H121.841V52.8936Z" fill="#2962FF"/>
<path d="M131.41 56.1836H125.505V72.684H131.41V56.1836Z" fill="#2962FF"/>
<path d="M140.979 53.3164H135.074V72.6839H140.979V53.3164Z" fill="#2962FF"/>
<path d="M48.2086 33.3945H91.7884C92.1809 33.3945 92.4999 33.7143 92.4999 34.1079C92.4999 34.5015 92.1809 34.8213 91.7884 34.8213H48.2086C47.816 34.8213 47.4971 34.5015 47.4971 34.1079C47.4971 33.7143 47.816 33.3945 48.2086 33.3945Z" fill="#D5D5D6"/>
<path d="M185 99.5897C185 99.8165 184.817 99.9997 184.591 99.9997H0.408918C0.18265 99.9997 0 99.8165 0 99.5897C0 99.3628 0.18265 99.1797 0.408918 99.1797H184.591C184.817 99.1797 185 99.3628 185 99.5897Z" fill="#2E2E41"/>
<path d="M36.4482 16.5848L41.8051 18.3504V10.6182H36.9444L36.4482 16.5848Z" fill="#F3A3A6"/>
<path d="M41.1424 12.7589C44.0904 12.7589 46.4802 10.3629 46.4802 7.40729C46.4802 4.45167 44.0904 2.05566 41.1424 2.05566C38.1945 2.05566 35.8047 4.45167 35.8047 7.40729C35.8047 10.3629 38.1945 12.7589 41.1424 12.7589Z" fill="#F3A3A6"/>
<path d="M39.7823 7.82493L40.5183 8.72143L41.8487 6.38727C41.8487 6.38727 43.5471 6.47473 43.5471 5.21199C43.5471 3.94924 45.1064 3.91371 45.1064 3.91371C45.1064 3.91371 47.3118 0.0516816 42.7428 1.06844C42.7428 1.06844 39.5724 -1.10993 37.9967 0.751384C37.9967 0.751384 33.1633 3.19214 34.5454 7.44229L36.8435 11.8209L37.3642 10.8287C37.3642 10.8287 37.048 6.66605 39.7823 7.82493Z" fill="#2F2E43"/>
<path d="M39.2893 89.832H34.9766V95.9653H39.2893V89.832Z" fill="#F3A3A6"/>
<path d="M38.8116 99.478C38.0728 99.5463 34.3844 99.836 34.199 98.9887C34.03 98.2098 34.2781 97.3953 34.3135 97.2859C34.6679 93.7492 34.7988 93.7082 34.8778 93.6836C35.0032 93.648 35.3713 93.8202 35.9655 94.2056L36.0037 94.2302L36.0119 94.2739C36.0228 94.3286 36.2872 95.6269 37.5358 95.4301C38.3918 95.2934 38.6699 95.1048 38.7598 95.0119C38.6862 94.9791 38.5963 94.9217 38.5336 94.8206C38.4409 94.6757 38.4245 94.4899 38.4845 94.2685C38.6453 93.6808 39.1279 92.8117 39.1469 92.7761L39.2015 92.6777L44.103 95.9931L47.129 96.8596C47.358 96.9251 47.5407 97.0891 47.6333 97.3078C47.7615 97.6139 47.6824 97.9692 47.4371 98.1906C46.8864 98.6853 45.7959 99.5354 44.6482 99.6392C44.3429 99.6666 43.9395 99.6775 43.4869 99.6775C41.5923 99.6775 38.8307 99.4807 38.8089 99.478H38.8116Z" fill="#2F2E43"/>
<path d="M25.834 80.6248L21.9346 85.3506L25.2576 88.1068L29.157 83.381L25.834 80.6248Z" fill="#F3A3A6"/>
<path d="M22.6623 90.5107C22.0517 90.0898 19.023 87.9579 19.4183 87.1871C19.7836 86.4792 20.4923 86.0118 20.5905 85.949C23.1121 83.4508 23.2403 83.5027 23.3166 83.5355C23.4366 83.5875 23.6083 83.9565 23.8237 84.6316L23.8373 84.6726L23.8155 84.7108C23.7882 84.76 23.1667 85.9298 24.2544 86.5749C25.0013 87.0176 25.3367 87.0477 25.4621 87.034C25.4266 86.963 25.3939 86.8591 25.4075 86.7416C25.4266 86.5721 25.5329 86.4163 25.7238 86.2851C26.2226 85.9353 27.1441 85.5745 27.185 85.5581L27.2886 85.5171L28.9569 91.2049L30.7371 93.8069C30.8707 94.0037 30.9088 94.247 30.8407 94.4766C30.7453 94.7936 30.459 95.0178 30.1265 95.0314C29.3877 95.0615 28.0083 95.0178 27.0568 94.3645C26.806 94.1923 26.4871 93.9436 26.1381 93.6539C24.6797 92.4431 22.676 90.5271 22.6596 90.5107H22.6623Z" fill="#2F2E43"/>
<path d="M46.4208 42.5234H31.6289L34.9166 91.5463H39.8482L46.4236 42.5234H46.4208Z" fill="#2F2E43"/>
<path d="M43.408 45.2239L46.4204 42.5234L44.9128 69.4866L28.0681 85.5524L23.8672 82.073L33.6839 69.3034L43.408 45.2239Z" fill="#2F2E43"/>
<path d="M43.4084 13.688L36.1024 12.499L33.8343 16.4758C30.9501 21.5323 29.7751 27.3868 30.4812 33.1676L31.6289 42.5288H46.4208L43.4084 13.6907V13.688Z" fill="#2962FF"/>
<path d="M37.4759 51.352C37.7785 52.8635 37.2142 54.2438 36.2191 54.4351C35.2214 54.6237 34.1691 53.5523 33.8665 52.0381C33.7384 51.434 33.7602 50.8109 33.9319 50.2178L32.7324 43.792L35.8675 43.3027L36.7153 49.6903C37.1024 50.1795 37.3641 50.748 37.4759 51.3548V51.352Z" fill="#F3A3A6"/>
<path d="M33.662 49.6106L29.0576 35.3487V35.3268L30.7969 20.6413C31.064 18.3919 32.9669 16.6973 35.2241 16.6973C36.6062 16.6973 37.8875 17.3232 38.7381 18.4165C39.5886 19.5097 39.8858 20.9064 39.5505 22.2539L36.4781 34.5725L37.2114 48.5528L33.6593 49.6106H33.662Z" fill="#2962FF"/>
</g>
<defs>
<clipPath id="clip0_219_5982">
<rect width="185" height="100" fill="white"/>
</clipPath>
</defs>
</svg>
