<svg width="110" height="40" viewBox="0 0 110 40" fill="none" xmlns="http://www.w3.org/2000/svg">
<path d="M10.865 34.362C10.8387 31.878 12.8668 29.8468 15.3954 29.8209C17.924 29.7951 19.9916 31.7874 20.018 34.2714C20.0443 36.7554 18.0162 38.7866 15.4876 38.8125C15.4744 38.8125 15.4612 38.8125 15.4481 38.8125C12.9327 38.8254 10.8782 36.833 10.865 34.362ZM68.2059 37.5964C67.8306 37.04 67.6462 36.3738 67.6791 35.7075V28.9929H69.4241V30.953H71.3074V32.2855H69.4241V35.7075C69.4241 36.5484 69.7731 36.9689 70.4645 36.9624C70.7279 36.9624 70.9913 36.9042 71.235 36.8007L71.5379 38.0427C71.314 38.1203 71.0835 38.1785 70.853 38.2238C70.5831 38.2756 70.3065 38.3079 70.0299 38.3015C69.3385 38.3726 68.6603 38.1074 68.2125 37.5834L68.2059 37.5964ZM62.0425 38.0298C61.575 37.8616 61.1404 37.6158 60.7519 37.3182L61.5684 36.2379C61.8713 36.4773 62.2005 36.6713 62.5561 36.833C62.8919 36.9754 63.2541 37.0465 63.6163 37.0465C63.9324 37.0724 64.2484 36.9883 64.5052 36.8072C64.6896 36.6519 64.795 36.4255 64.7884 36.1862C64.7884 35.8757 64.5843 35.5975 64.2945 35.4876C63.9653 35.3258 63.6031 35.1706 63.2146 35.0283C62.7142 34.8471 62.24 34.6078 61.8054 34.3038C61.3577 33.9933 61.1009 33.4758 61.1338 32.9324C61.1206 32.3373 61.3906 31.768 61.8647 31.3864C62.4244 30.9594 63.1224 30.746 63.827 30.7783C64.3011 30.7718 64.7752 30.8624 65.2098 31.0435C65.5917 31.1988 65.9473 31.4058 66.2766 31.6451L65.4732 32.6737C65.2296 32.499 64.9596 32.3502 64.683 32.2273C64.4196 32.1173 64.1365 32.0591 63.8468 32.0591C63.557 32.0332 63.2607 32.1173 63.0236 32.2855C62.8524 32.4214 62.7537 32.6348 62.7603 32.8483C62.7603 33.1394 62.9512 33.3982 63.2278 33.4952C63.5768 33.6569 63.9324 33.7992 64.2945 33.9221C64.8016 34.1097 65.2822 34.3491 65.73 34.6466C66.2041 34.9765 66.4675 35.5328 66.4148 36.1021C66.4148 36.7101 66.1515 37.2859 65.6773 37.674C65.0715 38.1462 64.3143 38.3791 63.5438 38.3273C63.0302 38.3273 62.5166 38.2238 62.0425 38.0362V38.0298ZM53.7127 37.5705C53.3176 36.943 53.1266 36.2056 53.1727 35.4617V30.953H54.9045V35.2417C54.865 35.6751 54.9638 36.115 55.1745 36.5031C55.3852 36.7619 55.7145 36.8977 56.0437 36.8719C56.3466 36.8719 56.6429 36.7942 56.8931 36.639C57.196 36.4255 57.466 36.1732 57.6833 35.8757V30.9594H59.4151V38.1462H58.006L57.8677 37.0918H57.8216C57.5253 37.4411 57.1697 37.7451 56.768 37.9845C56.3664 38.2109 55.912 38.3273 55.4445 38.3209C54.7794 38.3726 54.1275 38.0945 53.7127 37.577V37.5705ZM47.648 38.1397V30.953H49.0769L49.1954 32.2273H49.2547C49.6103 31.3864 50.4202 30.8236 51.3487 30.7783C51.6384 30.7654 51.9216 30.8171 52.1916 30.9271L51.8887 32.389C51.7701 32.3502 51.6516 32.3243 51.5265 32.2985C51.3948 32.2791 51.2565 32.2661 51.1182 32.2726C50.7824 32.2855 50.4597 32.402 50.1964 32.6025C49.8144 32.9001 49.5313 33.2947 49.3732 33.7539V38.1462H47.6414L47.648 38.1397ZM42.5777 38.1397V30.0021H39.733V28.566H47.1607V30.0021H44.3161V38.1397H42.5711H42.5777ZM4.57647 24.4907H4.55013C4.43819 24.4907 4.31966 24.4907 4.20772 24.4713C4.13529 24.4713 4.05627 24.4584 3.98384 24.4454L3.86531 24.426C1.79767 24.1155 0.2173 22.466 0.0197546 20.4283C0.0197546 20.4025 0.0197546 20.3831 0.0197546 20.3572C0.0131697 20.2472 0 20.1437 0 20.0337V20.0143C0 19.8656 0.0131697 19.7168 0.0263394 19.568V19.5551C0.105358 18.8176 0.368752 18.1125 0.796767 17.498L11.5762 2.07007L11.5959 2.0442C12.9919 -0.0452034 15.8366 -0.627389 17.9635 0.737513C18.4969 1.08036 18.9446 1.5267 19.2936 2.0442C19.2936 2.0442 19.3068 2.0636 19.3134 2.07007L30.0928 17.498C31.5085 19.5227 30.9817 22.2913 28.9207 23.6821C28.9075 23.695 28.8878 23.7015 28.8746 23.7145C26.774 25.0988 23.9294 24.5748 22.4873 22.5307L15.4481 12.4524L15.4151 12.4071C14.0126 10.3759 11.2403 9.76787 9.09368 11.0228C7.23676 12.1484 6.45974 14.4189 7.24334 16.4177C7.36845 16.7412 7.53307 17.0452 7.73062 17.3298L8.7381 18.7723C9.0015 19.1411 9.15295 19.5809 9.15953 20.0273C9.14636 22.5048 7.09847 24.4972 4.58306 24.4907H4.57647ZM106.503 23.6627C106.128 23.1064 105.944 22.4401 105.977 21.7738V15.0593H107.722V17.0193H109.598V18.3519H107.722V21.7738C107.722 22.6148 108.071 23.0352 108.762 23.0288C109.025 23.0288 109.289 22.9706 109.526 22.8671L109.829 24.109C109.605 24.1867 109.374 24.2449 109.144 24.2902C108.874 24.3484 108.597 24.3743 108.327 24.3678C107.636 24.439 106.958 24.1737 106.51 23.6498L106.503 23.6627ZM90.5418 23.3846C89.8108 22.6471 89.4289 21.6445 89.4882 20.6159C89.4684 19.9108 89.6396 19.2187 89.9755 18.5977C90.2718 18.0608 90.713 17.608 91.2463 17.2975C91.7402 17.0064 92.3065 16.8447 92.886 16.8447C93.7552 16.7929 94.6046 17.1422 95.1643 17.7956C95.7043 18.5007 95.9743 19.3739 95.9413 20.2537C95.9479 20.5318 95.9216 20.8035 95.8689 21.0752H91.1739C91.2068 21.638 91.457 22.162 91.8719 22.5501C92.2802 22.9059 92.8069 23.0935 93.3535 23.0741C93.6564 23.0741 93.9593 23.0288 94.249 22.9317C94.5388 22.8347 94.8087 22.7053 95.0655 22.5436L95.6516 23.598C95.2828 23.8309 94.8943 24.0185 94.4795 24.1543C94.0449 24.3031 93.584 24.3743 93.123 24.3743C92.1616 24.3937 91.2266 24.0379 90.5352 23.3781L90.5418 23.3846ZM91.7797 18.6042C91.4241 18.9599 91.2068 19.4322 91.1607 19.9302H94.44C94.4663 19.4645 94.3346 19.0052 94.0647 18.6236C93.7881 18.2937 93.3667 18.119 92.9386 18.1449C92.504 18.1449 92.0892 18.3066 91.7797 18.6042ZM70.2143 23.3846C69.4834 22.6471 69.1015 21.6445 69.1607 20.6159C69.141 19.9108 69.3122 19.2187 69.648 18.5977C69.9443 18.0608 70.3855 17.608 70.9189 17.2975C71.4128 17.0064 71.979 16.8447 72.5585 16.8447C73.4277 16.7929 74.2772 17.1422 74.8369 17.7956C75.3768 18.5007 75.6468 19.3739 75.6139 20.2537C75.6205 20.5318 75.5941 20.8035 75.5415 21.0752H70.8465C70.8794 21.638 71.1296 22.162 71.5444 22.5501C71.9527 22.9059 72.4795 23.0935 73.026 23.0741C73.3289 23.0741 73.6318 23.0288 73.9216 22.9317C74.2113 22.8347 74.4813 22.7053 74.7447 22.5436L75.3307 23.598C74.962 23.8309 74.5735 24.0185 74.1586 24.1543C73.724 24.3031 73.2631 24.3743 72.8022 24.3743C71.8408 24.3937 70.9057 24.0379 70.2143 23.3781V23.3846ZM71.4523 18.6042C71.0967 18.9599 70.8794 19.4322 70.8333 19.9302H74.1125C74.1389 19.4645 74.0072 19.0052 73.7372 18.6236C73.4606 18.2937 73.0392 18.119 72.6112 18.1449C72.1766 18.1449 71.7617 18.3066 71.4523 18.6042ZM56.3729 23.6627C55.9976 23.1064 55.8132 22.4401 55.8461 21.7738V15.0593H57.5911V17.0193H59.4744V18.3519H57.5977V21.7738C57.5977 22.6148 57.9467 23.0352 58.6381 23.0288C58.9015 23.0288 59.1649 22.9706 59.4086 22.8671L59.7115 24.109C59.4876 24.1867 59.2571 24.2449 59.0266 24.2902C58.7567 24.3419 58.4801 24.3743 58.2035 24.3678C57.5121 24.439 56.8273 24.1737 56.3795 23.6498L56.3729 23.6627ZM48.8333 23.3846C48.1024 22.6471 47.7204 21.6445 47.7797 20.6159C47.7599 19.9108 47.9312 19.2187 48.267 18.5977C48.5633 18.0608 49.0045 17.6144 49.5379 17.2975C50.0317 17.0064 50.598 16.8447 51.1775 16.8447C52.0467 16.7929 52.8896 17.1422 53.4559 17.7956C53.9958 18.5007 54.2658 19.3739 54.2329 20.2537C54.2394 20.5318 54.2131 20.8035 54.1604 21.0752H49.472C49.5115 21.638 49.7552 22.162 50.17 22.5501C50.5783 22.9059 51.1051 23.0935 51.6516 23.0741C51.9545 23.0741 52.2574 23.0288 52.5471 22.9317C52.8369 22.8347 53.1069 22.7053 53.3703 22.5436L53.9563 23.598C53.5876 23.8309 53.199 24.0185 52.7842 24.1543C52.3496 24.3031 51.8887 24.3743 51.4277 24.3743C50.4663 24.3937 49.5313 24.0379 48.8399 23.3781L48.8333 23.3846ZM50.0647 18.6042C49.7091 18.9599 49.4918 19.4322 49.4457 19.9302H52.7249C52.7513 19.4645 52.6196 19.0052 52.3496 18.6236C52.073 18.2937 51.6516 18.119 51.2236 18.1449C50.789 18.1449 50.3741 18.3066 50.0647 18.6042ZM41.5504 24.1996H39.8054V14.6259H43.1308C44.0263 14.5935 44.9219 14.807 45.7055 15.2404C46.443 15.7385 46.8381 16.5924 46.7459 17.4657C46.7788 18.0996 46.5878 18.7206 46.2125 19.2381C45.8503 19.6909 45.3499 20.0273 44.7902 20.2019L47.1344 24.1931H45.1787L43.0584 20.4477H41.5504V24.1931V24.1996ZM41.5504 19.1087H42.9464C44.3227 19.1087 45.0207 18.5589 45.0207 17.4721C45.0667 17.0258 44.8626 16.5859 44.4873 16.3272C44.0132 16.0814 43.4798 15.9649 42.9464 15.9973H41.5504V19.1152V19.1087ZM102.348 24.1996V19.9108C102.388 19.471 102.289 19.0376 102.072 18.6559C101.855 18.3972 101.532 18.2613 101.189 18.2872C100.887 18.2872 100.597 18.3583 100.34 18.5136C100.037 18.7077 99.7606 18.9341 99.5037 19.1799V24.1996H97.7719V17.0128H99.2008L99.3194 17.9767H99.3786C99.7079 17.6662 100.07 17.3945 100.459 17.1746C100.867 16.9482 101.328 16.8317 101.795 16.8382C102.46 16.78 103.112 17.0646 103.527 17.5821C103.922 18.2096 104.113 18.947 104.067 19.6909V24.1996H102.335H102.348ZM86.2748 24.1996V19.9108C86.3143 19.471 86.2155 19.0376 85.9982 18.6559C85.7941 18.4036 85.478 18.2678 85.1488 18.2872C84.5298 18.3713 83.9767 18.6883 83.6013 19.1799V24.1996H81.8695V19.9108C81.909 19.471 81.8102 19.0376 81.5929 18.6559C81.3822 18.4036 81.0596 18.2613 80.7303 18.2872C80.1113 18.3713 79.5582 18.6883 79.1829 19.1799V24.1996H77.4511V17.0128H78.88L78.9985 17.9896H79.0578C79.3607 17.6727 79.7031 17.401 80.0718 17.1681C80.4472 16.9417 80.8752 16.8253 81.3164 16.8317C82.2119 16.7606 83.0482 17.291 83.3643 18.119C83.6935 17.7762 84.0688 17.4657 84.4705 17.2069C84.8459 16.9611 85.287 16.8317 85.7414 16.8317C86.4065 16.78 87.0584 17.0581 87.4732 17.5756C87.8815 18.2031 88.0724 18.9405 88.0329 19.6844V24.1931H86.2879L86.2748 24.1996ZM64.334 24.1996V17.0128H65.7629L65.8815 18.2872H65.9407C66.2963 17.4463 67.1063 16.8835 68.0347 16.8382C68.3245 16.8253 68.6076 16.877 68.8776 16.987L68.5747 18.4489C68.4561 18.4101 68.3376 18.3842 68.2125 18.3583C68.0808 18.3389 67.9425 18.326 67.8043 18.326C67.4684 18.3389 67.1458 18.4554 66.8824 18.6559C66.5005 18.9535 66.2173 19.3481 66.0593 19.8009V24.1931H64.3274L64.334 24.1996ZM60.8704 24.1996V17.0128H62.6022V24.1996H60.8704ZM60.9758 16.1202C60.7782 15.9455 60.6663 15.6997 60.6729 15.4409C60.6663 15.1757 60.7782 14.9234 60.9758 14.7423C61.4235 14.3801 62.0623 14.3801 62.51 14.7423C62.7076 14.917 62.8195 15.1757 62.8129 15.4409C62.8129 15.6997 62.7076 15.952 62.51 16.1202C62.0623 16.4824 61.4235 16.4824 60.9758 16.1202ZM88.6848 10.046C88.2766 9.64496 88.0527 9.09512 88.079 8.52587C88.0593 7.78843 88.4544 7.10275 89.1063 6.73403C90.1335 6.21653 91.2661 5.91897 92.425 5.86075C92.4118 5.51144 92.3065 5.1686 92.1089 4.87103C91.8587 4.567 91.4702 4.41175 91.0751 4.45704C90.713 4.45704 90.3508 4.52819 90.015 4.66404C89.666 4.80635 89.3236 4.96807 89.0009 5.16213L88.3688 4.03657C88.8099 3.77782 89.2709 3.55788 89.7516 3.38323C90.2784 3.18916 90.8447 3.09213 91.4044 3.0986C92.1748 3.04038 92.9321 3.32501 93.4654 3.87485C93.9725 4.5476 94.2161 5.36913 94.1503 6.20359V10.46H92.7213L92.6028 9.67084H92.5435C92.2209 9.94252 91.8653 10.1689 91.4834 10.3565C91.1015 10.5441 90.68 10.6347 90.2586 10.6347C89.6726 10.6541 89.1062 10.4406 88.6848 10.046ZM90.331 7.47793C89.982 7.65906 89.7581 8.00837 89.745 8.39003C89.7186 8.66171 89.8372 8.92046 90.0479 9.09512C90.2718 9.25037 90.5418 9.32799 90.8117 9.31505C91.1015 9.31505 91.3846 9.25037 91.6348 9.10806C91.918 8.94634 92.188 8.74581 92.425 8.52587V6.91515C91.7007 6.96044 90.9895 7.1545 90.3376 7.47793H90.331ZM81.4612 10.0913C81.1847 9.65143 81.0464 9.13393 81.0793 8.61643V0.129452H82.8111V8.70699C82.798 8.86224 82.8375 9.01749 82.9297 9.1404C82.9955 9.21802 83.0877 9.2633 83.1865 9.2633C83.2787 9.2633 83.3708 9.25037 83.4564 9.23096L83.6803 10.4859C83.3906 10.5959 83.0745 10.6411 82.765 10.6347C82.2646 10.6864 81.7773 10.4794 81.4612 10.0913ZM73.6845 10.046C73.2763 9.64496 73.0524 9.09512 73.0787 8.52587C73.059 7.78843 73.4541 7.10275 74.106 6.73403C75.1332 6.21653 76.2658 5.91897 77.4247 5.86075C77.4116 5.51144 77.3062 5.1686 77.1087 4.87103C76.8584 4.567 76.4699 4.41175 76.0682 4.45704C75.7061 4.45704 75.3439 4.52819 75.0081 4.66404C74.6591 4.80635 74.3167 4.96807 73.994 5.16213L73.3619 4.03657C73.8031 3.77782 74.264 3.55788 74.7447 3.38323C75.2715 3.18916 75.8378 3.09213 76.3975 3.0986C77.1679 3.04038 77.9252 3.32501 78.4651 3.87485C78.9722 4.5476 79.2158 5.36913 79.1499 6.20359V10.46H77.721L77.6025 9.67084H77.5433C77.2206 9.94252 76.865 10.1689 76.4831 10.3565C76.1012 10.5441 75.6797 10.6347 75.2583 10.6347C74.6723 10.6541 74.106 10.4406 73.6845 10.046ZM75.3307 7.47793C74.9817 7.65906 74.7579 8.00837 74.7447 8.39003C74.7249 8.66171 74.8369 8.92046 75.0476 9.09512C75.2715 9.25037 75.5415 9.32799 75.818 9.31505C76.1077 9.31505 76.3909 9.25037 76.6411 9.10806C76.9243 8.94634 77.1943 8.74581 77.4313 8.52587V6.91515C76.7004 6.96044 75.9892 7.1545 75.3373 7.47793H75.3307ZM63.8994 9.91665C63.5241 9.36034 63.3397 8.69406 63.3726 8.02778V1.3197H65.1176V3.27973H67.0009V4.61229H65.1176V8.03425C65.1176 8.87518 65.4666 9.29565 66.158 9.29565C66.4214 9.29565 66.6848 9.23743 66.9285 9.13393L67.2314 10.3759C67.0075 10.4471 66.777 10.5118 66.5465 10.5571C66.2766 10.6153 66 10.6411 65.7234 10.6347C65.032 10.7058 64.3538 10.4406 63.906 9.91665H63.8994ZM49.3403 9.8843C48.9452 9.25684 48.7543 8.5194 48.8004 7.7755V3.27973H50.5322V7.5685C50.4927 8.0019 50.5849 8.44178 50.8022 8.82343C51.0129 9.08218 51.3421 9.21802 51.6714 9.19215C51.9743 9.19215 52.2706 9.11452 52.5208 8.95928C52.8237 8.74581 53.0937 8.49353 53.311 8.19596V3.27973H55.0428V10.4665H53.6271L53.4888 9.41209H53.4427C53.1464 9.7614 52.7908 10.0654 52.3891 10.3048C51.9874 10.5376 51.5265 10.6541 51.0656 10.6411C50.4005 10.6994 49.7486 10.4147 49.3337 9.89724L49.3403 9.8843ZM57.6438 10.3436C57.1763 10.1754 56.7417 9.93605 56.3532 9.63202L57.1631 8.55174C57.466 8.79109 57.7953 8.98515 58.1509 9.14687C58.4867 9.28918 58.8488 9.36034 59.211 9.36034C59.5271 9.38621 59.8432 9.30212 60.1 9.12099C60.2843 8.96574 60.3897 8.73934 60.3831 8.5C60.3831 8.1895 60.179 7.91781 59.8893 7.80784C59.56 7.64612 59.1978 7.49087 58.8093 7.34856C58.3089 7.16744 57.8348 6.92809 57.4002 6.62406C56.9524 6.31356 56.6956 5.79606 56.7285 5.25916C56.7154 4.66404 56.9853 4.09479 57.4594 3.71313C58.0192 3.28619 58.7171 3.06626 59.4217 3.10507C59.8958 3.0986 60.3699 3.18916 60.8045 3.37029C61.1865 3.52554 61.5421 3.72607 61.8713 3.97188L61.0745 5.00041C60.8309 4.82575 60.5609 4.6705 60.2843 4.55407C60.021 4.4441 59.7378 4.38588 59.4481 4.38588C59.1583 4.36 58.862 4.4441 58.625 4.61229C58.4538 4.7546 58.3616 4.9616 58.3616 5.17507C58.3616 5.46616 58.5525 5.72491 58.8291 5.82194C59.1781 5.98366 59.5337 6.12597 59.8958 6.24888C60.4029 6.43647 60.8836 6.68228 61.3313 6.97337C61.8054 7.30328 62.0623 7.85959 62.0162 8.42884C62.0162 9.0369 61.7528 9.61262 61.2787 10.0007C60.6729 10.473 59.909 10.7058 59.1452 10.6541C58.6315 10.6541 58.1179 10.5506 57.6438 10.363V10.3436ZM41.3397 10.4536H39.5684L42.7686 0.886294H44.8165L48.0168 10.4536H46.1862L45.4157 7.86606H42.1101L41.3397 10.4536ZM43.3218 3.80369C43.1769 4.32766 43.0254 4.85163 42.8608 5.36266L42.5118 6.5335H45.0272L44.6848 5.36266C44.5268 4.87103 44.3753 4.3406 44.2239 3.79722C44.0922 3.31854 43.9539 2.80104 43.7959 2.19945H43.7366C43.6115 2.71695 43.4732 3.25385 43.3283 3.80369H43.3218ZM100.656 10.4536V6.16478C100.696 5.72491 100.597 5.2915 100.38 4.90338C100.162 4.64463 99.8396 4.50879 99.4972 4.53466C99.2008 4.53466 98.9045 4.60582 98.6477 4.76107C98.3448 4.95513 98.0682 5.18153 97.8114 5.42735V10.4471H96.0862V3.27973H97.5151L97.6336 4.24357H97.6929C98.0221 3.93307 98.3843 3.66138 98.7728 3.44144C99.1811 3.21504 99.642 3.0986 100.11 3.10507C100.775 3.04685 101.427 3.33148 101.841 3.84897C102.236 4.47644 102.427 5.21388 102.381 5.95778V10.4665H100.65L100.656 10.4536ZM85.0105 10.4536V3.27973H86.7357V10.4665H85.0105V10.4536ZM68.4035 10.4536V3.27973H69.8324L69.9509 4.55407H70.0102C70.3658 3.71313 71.1757 3.15035 72.1042 3.10507C72.3939 3.09213 72.677 3.14388 72.947 3.25385L72.6507 4.71579C72.5322 4.67697 72.4136 4.6511 72.2885 4.62522C72.1568 4.60582 72.0186 4.59288 71.8803 4.59288C71.5444 4.60582 71.2218 4.72225 70.9584 4.92278C70.5765 5.22035 70.2933 5.61494 70.1353 6.07422V10.4665H68.4035V10.4536ZM85.1158 2.3741C84.9183 2.19945 84.8063 1.95364 84.8129 1.69489C84.8063 1.42967 84.9117 1.17739 85.1158 1.00273C85.5636 0.640482 86.2023 0.640482 86.6501 1.00273C86.8476 1.17739 86.9596 1.43614 86.953 1.69489C86.953 1.95364 86.8476 2.20592 86.6501 2.3741C86.2023 2.73635 85.5636 2.73635 85.1158 2.3741Z" fill="#0051FF"/>
</svg>
