<svg width="60" height="60" viewBox="0 0 60 60" fill="none" xmlns="http://www.w3.org/2000/svg">
<circle cx="30" cy="32" r="28" fill="white" fill-opacity="0.24"/>
<mask id="mask0_42_709" style="mask-type:alpha" maskUnits="userSpaceOnUse" x="0" y="0" width="60" height="60">
<circle cx="30" cy="30" r="30" fill="#DEDEE8"/>
</mask>
<g mask="url(#mask0_42_709)">
<circle opacity="0.5" cx="30" cy="30" r="30" fill="black"/>
<path d="M20.5297 54.9361C20.5297 54.9361 13.3302 56.384 13.026 50.3214C12.8944 47.6976 12.5405 48.108 10.2463 45.8954C7.95198 43.6828 7.95198 42.7816 8.444 40.7331C8.93601 38.6845 11.0017 37.9807 9.98073 36.0877C8.63564 33.5946 9.04805 29.3325 11.9707 27.6711C14.7961 26.065 15.1142 26.0867 15.1142 24.4397C15.1142 22.2887 17.3475 18.8226 21.9553 19.1831C25.9203 19.4928 25.303 17.5643 28.113 16.7053C33.345 15.1051 35.8802 19.6366 37.6828 19.8006C39.4853 19.9647 42.6048 19.995 44.1881 22.3908C46.1516 25.3621 44.4169 27.7871 46.8752 28.0328C49.3335 28.2785 51.7918 30.4091 51.7098 32.6217C51.6278 34.8343 50.3167 36.7185 51.2181 37.702C52.1195 38.6854 52.4689 44.5088 48.8316 45.6235C43.8609 47.1464 48.8316 54.5048 39.6899 54.3684C31.4713 54.2453 20.5297 54.9361 20.5297 54.9361Z" fill="#3F2037"/>
<path d="M50.0947 60.5967H8.88287C8.88287 60.5967 9.2968 55.4549 11.7851 54.4606C12.2997 54.2546 13.1558 53.853 14.1897 53.3462C14.3326 53.2756 14.4798 53.2035 14.6291 53.1294H14.6321C14.896 52.9986 15.1685 52.8626 15.4494 52.7214C17.4539 51.7164 19.8112 50.4926 21.6468 49.5314L22.2659 49.2073C23.7209 48.4426 24.7209 47.9109 24.7209 47.9109L25.0357 47.9815C27.9652 48.6377 31.0061 48.6136 33.9248 47.9109C33.9248 47.9109 34.962 48.445 36.4672 49.2118C36.4864 49.222 36.505 49.2313 36.5245 49.2419C37.4329 49.7053 38.507 50.2511 39.6262 50.8137C42.6321 52.3273 45.9489 53.965 47.1928 54.4627C49.6817 55.4549 50.0947 60.5967 50.0947 60.5967Z" fill="#0075CF"/>
<path d="M29.8973 57.8526C29.0128 57.8533 28.1319 57.7416 27.2756 57.5204C26.252 57.2722 25.2795 56.8474 24.4019 56.2651C24.3769 56.2481 24.3555 56.2263 24.3391 56.2008C24.3228 56.1754 24.3117 56.147 24.3065 56.1172C24.3014 56.0874 24.3023 56.0568 24.3092 56.0274C24.3161 55.998 24.3288 55.9702 24.3467 55.9458C24.3645 55.9214 24.3871 55.9008 24.4131 55.8853C24.439 55.8698 24.4679 55.8597 24.4978 55.8556C24.5278 55.8515 24.5583 55.8534 24.5874 55.8614C24.6166 55.8693 24.6439 55.883 24.6677 55.9017C25.507 56.4505 26.4337 56.8521 27.408 57.0893C29.7028 57.6627 32.1243 57.438 34.2744 56.4522C34.3017 56.4388 34.3315 56.431 34.3619 56.4293C34.3923 56.4277 34.4228 56.4322 34.4514 56.4426C34.48 56.4531 34.5062 56.4692 34.5284 56.4901C34.5506 56.511 34.5683 56.5361 34.5805 56.564C34.5927 56.592 34.5991 56.6221 34.5994 56.6525C34.5996 56.683 34.5937 56.7132 34.5819 56.7413C34.5701 56.7694 34.5528 56.7948 34.5309 56.816C34.509 56.8372 34.4831 56.8538 34.4546 56.8647C33.0212 57.5086 31.4687 57.8451 29.8973 57.8526Z" fill="#0056A8"/>
<path d="M36.468 49.2104C35.982 51.3239 34.4149 55.2714 29.4888 55.2714C24.2448 55.2714 22.6948 51.0604 22.2659 49.2056C23.7209 48.4408 24.7209 47.9092 24.7209 47.9092L25.0357 47.9798C27.9651 48.636 31.0061 48.6119 33.9247 47.9092C33.9247 47.9092 34.9628 48.4436 36.468 49.2104Z" fill="#FFB8A1"/>
<path d="M17.1685 60.5967H8.88287C8.88287 60.5967 9.2968 55.4549 11.7851 54.4606C12.2997 54.2546 13.1558 53.853 14.1897 53.3462C14.3326 53.2756 14.4798 53.2035 14.6291 53.1293H14.6321C14.896 52.9986 15.1685 52.8626 15.4494 52.7214C16.0694 54.448 17.0964 57.7185 17.1685 60.5967Z" fill="#FFB8A1"/>
<path d="M41.8112 60.5967H50.0947C50.0947 60.5967 49.6807 55.4549 47.1927 54.4606C46.6779 54.2546 45.8221 53.853 44.7882 53.3462C44.6448 53.2755 44.4982 53.2032 44.3484 53.1293H44.3454C44.0815 52.9986 43.8091 52.8626 43.5281 52.7214C42.9099 54.448 41.8829 57.7185 41.8112 60.5967Z" fill="#FFB8A1"/>
<path d="M34.1359 48.959C34.1359 48.959 33.3276 51.4996 29.6137 51.4996C25.282 51.4996 24.2625 49.19 24.2625 49.19C24.6022 48.2962 24.8734 47.3778 25.0735 46.4427C25.3222 45.3169 25.4386 44.1659 25.4202 43.013L33.0302 42.7126C33.1005 43.357 33.215 44.1157 33.3444 44.879C33.6878 46.9047 34.1359 48.959 34.1359 48.959Z" fill="#FFB8A1"/>
<path d="M33.3438 44.8783C32.1646 45.6983 29.587 46.919 25.0729 46.4432C25.3216 45.3174 25.438 44.1663 25.4196 43.0135L33.0296 42.7131C33.0999 43.3556 33.2135 44.1144 33.3438 44.8783Z" fill="#3F2037"/>
<path d="M37.4128 33.5214C37.4128 33.5214 39.1955 31.0949 40.5824 32.5301C41.9692 33.9654 39.2947 38.9681 36.8679 37.8787L37.4128 33.5214Z" fill="#FFB8A1"/>
<path d="M36.676 37.8305C35.944 38.1846 35.3627 38.7886 35.0372 39.5337C34.7116 40.2788 34.6632 41.1157 34.9007 41.8933C35.1381 42.671 35.6459 43.338 36.3321 43.7741C37.0184 44.2102 37.838 44.3865 38.6428 44.2711C39.4477 44.1558 40.1848 43.7565 40.721 43.1453C41.2573 42.5341 41.5572 41.7513 41.5668 40.9382C41.5764 40.1252 41.2949 39.3355 40.7732 38.7119C40.2516 38.0882 39.5241 37.6716 38.7221 37.5374C38.5674 37.5111 38.411 37.4958 38.2542 37.4917C38.2654 37.3606 38.2926 37.2314 38.3353 37.1069C38.5937 37.1185 38.8501 37.1568 39.1006 37.2214C39.9747 37.4451 40.7404 37.9729 41.2605 38.7101C41.7806 39.4473 42.021 40.3458 41.9385 41.2442C41.8561 42.1426 41.4563 42.9823 40.8108 43.6126C40.1652 44.2429 39.3163 44.6226 38.4161 44.6836C37.516 44.7445 36.6235 44.4827 35.8989 43.9452C35.1743 43.4077 34.6649 42.6296 34.4621 41.7505C34.2594 40.8713 34.3764 39.9487 34.7924 39.1481C35.2083 38.3475 35.8959 37.7213 36.7318 37.3818L36.676 37.8305Z" fill="#FFF7F1"/>
<path d="M38.1301 36.3891C38.1244 36.3895 38.1187 36.3895 38.113 36.3891C38.0807 36.3846 38.0514 36.3675 38.0317 36.3414C38.012 36.3154 38.0034 36.2826 38.0079 36.2503C38.1986 35.1135 38.7965 34.085 39.69 33.3567C39.716 33.3368 39.7489 33.3281 39.7813 33.3324C39.8138 33.3367 39.8432 33.3537 39.8632 33.3797C39.8831 33.4057 39.8918 33.4386 39.8875 33.4711C39.8832 33.5035 39.8662 33.533 39.8402 33.5529C39.0036 34.246 38.4407 35.214 38.2521 36.2839C38.2478 36.3132 38.2331 36.3399 38.2107 36.3593C38.1883 36.3786 38.1597 36.3892 38.1301 36.3891Z" fill="#FF8A8A"/>
<path d="M38.5035 35.1782C38.4812 35.1781 38.4592 35.172 38.4401 35.1604C38.421 35.1489 38.4053 35.1324 38.3949 35.1126C38.3844 35.0929 38.3794 35.0707 38.3806 35.0484C38.3817 35.0261 38.3889 35.0045 38.4014 34.9859C38.6951 34.5516 39.4917 34.5954 39.5254 34.5981C39.558 34.6001 39.5885 34.615 39.6102 34.6395C39.6318 34.664 39.6429 34.696 39.6409 34.7287C39.6389 34.7613 39.624 34.7918 39.5995 34.8134C39.5751 34.8351 39.543 34.8461 39.5104 34.8441C39.3187 34.8327 38.7838 34.8604 38.6056 35.1238C38.5943 35.1405 38.5791 35.1542 38.5613 35.1637C38.5435 35.1731 38.5237 35.1781 38.5035 35.1782Z" fill="#FF8A8A"/>
<path d="M21.9493 33.5214C21.9493 33.5214 20.1666 31.0949 18.7797 32.5301C17.3929 33.9654 20.0675 38.9681 22.4942 37.8787L21.9493 33.5214Z" fill="#FFB8A1"/>
<path d="M22.4326 37.3818C23.2684 37.7213 23.9559 38.3475 24.3718 39.148C24.7877 39.9486 24.9047 40.8711 24.7019 41.7501C24.4991 42.6292 23.9898 43.4072 23.2652 43.9446C22.5407 44.4821 21.6484 44.7438 20.7483 44.6829C19.8483 44.622 18.9994 44.2423 18.3539 43.6121C17.7084 42.9819 17.3086 42.1423 17.2262 41.244C17.1437 40.3456 17.384 39.4473 17.904 38.7101C18.424 37.9729 19.1896 37.4451 20.0636 37.2214C20.3141 37.1568 20.5707 37.1185 20.8292 37.1069C20.8718 37.2314 20.8991 37.3606 20.9103 37.4917C20.7533 37.4958 20.5968 37.5111 20.442 37.5374C19.6401 37.6716 18.9126 38.0882 18.3909 38.7119C17.8692 39.3355 17.5878 40.1252 17.5974 40.9382C17.6069 41.7513 17.9069 42.5341 18.4431 43.1453C18.9794 43.7565 19.7165 44.1558 20.5213 44.2711C21.3262 44.3865 22.1458 44.2102 22.832 43.7741C23.5183 43.3381 24.026 42.671 24.2635 41.8933C24.501 41.1157 24.4526 40.2788 24.127 39.5337C23.8014 38.7886 23.2202 38.1846 22.4882 37.8305L22.4326 37.3818Z" fill="#FFF7F1"/>
<path d="M22.4326 37.3818C23.2684 37.7213 23.9559 38.3475 24.3718 39.148C24.7877 39.9486 24.9047 40.8711 24.7019 41.7501C24.4991 42.6292 23.9898 43.4072 23.2652 43.9446C22.5407 44.4821 21.6484 44.7438 20.7483 44.6829C19.8483 44.622 18.9994 44.2423 18.3539 43.6121C17.7084 42.9819 17.3086 42.1423 17.2262 41.244C17.1437 40.3456 17.384 39.4473 17.904 38.7101C18.424 37.9729 19.1896 37.4451 20.0636 37.2214C20.3141 37.1568 20.5707 37.1185 20.8292 37.1069C20.8718 37.2314 20.8991 37.3606 20.9103 37.4917C20.7533 37.4958 20.5968 37.5111 20.442 37.5374C19.6401 37.6716 18.9126 38.0882 18.3909 38.7119C17.8692 39.3355 17.5878 40.1252 17.5974 40.9382C17.6069 41.7513 17.9069 42.5341 18.4431 43.1453C18.9794 43.7565 19.7165 44.1558 20.5213 44.2711C21.3262 44.3865 22.1458 44.2102 22.832 43.7741C23.5183 43.3381 24.026 42.671 24.2635 41.8933C24.501 41.1157 24.4526 40.2788 24.127 39.5337C23.8014 38.7886 23.2202 38.1846 22.4882 37.8305L22.4326 37.3818Z" fill="#FFF7F1"/>
<path d="M21.2327 36.3891C21.2384 36.3895 21.2441 36.3895 21.2498 36.3891C21.2821 36.3846 21.3114 36.3675 21.3311 36.3414C21.3508 36.3154 21.3594 36.2826 21.3549 36.2503C21.1642 35.1135 20.5663 34.085 19.6728 33.3567C19.6468 33.3368 19.6139 33.3281 19.5815 33.3324C19.549 33.3367 19.5195 33.3537 19.4996 33.3797C19.4797 33.4057 19.4709 33.4386 19.4753 33.4711C19.4796 33.5035 19.4966 33.533 19.5226 33.5529C20.3592 34.246 20.9221 35.214 21.1107 36.2839C21.115 36.3132 21.1297 36.3399 21.1521 36.3593C21.1745 36.3786 21.2031 36.3892 21.2327 36.3891Z" fill="#FF8A8A"/>
<path d="M20.8592 35.1782C20.8816 35.1781 20.9035 35.172 20.9226 35.1604C20.9417 35.1489 20.9574 35.1324 20.9679 35.1126C20.9784 35.0929 20.9833 35.0707 20.9821 35.0484C20.981 35.0261 20.9738 35.0045 20.9614 34.9859C20.6676 34.5516 19.871 34.5954 19.8373 34.5981C19.8047 34.6001 19.7742 34.615 19.7526 34.6395C19.7309 34.664 19.7199 34.696 19.7218 34.7287C19.7238 34.7613 19.7387 34.7918 19.7632 34.8134C19.7877 34.8351 19.8197 34.8461 19.8524 34.8441C20.044 34.8327 20.579 34.8604 20.7571 35.1238C20.7684 35.1405 20.7836 35.1542 20.8014 35.1637C20.8192 35.1731 20.8391 35.1781 20.8592 35.1782Z" fill="#FF8A8A"/>
<path d="M38.3163 33.9145C38.1877 38.8531 35.5063 45.5392 29.6129 45.3995C24.3983 45.2772 21.8087 40.3288 21.1783 35.8147C21.1254 35.4339 21.086 35.0554 21.0605 34.6838C20.5583 27.4078 23.4512 23.6828 29.669 23.4794C30.0181 23.4678 30.3779 23.4678 30.7486 23.4794C31.48 23.5553 32.206 23.6762 32.9224 23.8417C37.2181 25.2492 38.4509 28.7225 38.3163 33.9145Z" fill="#FFB8A1"/>
<g opacity="0.5">
<g opacity="0.5">
<path opacity="0.5" d="M26.6743 36.8766C26.6743 37.4473 25.6229 37.9078 24.3262 37.9078C23.0295 37.9078 21.9778 37.4461 21.9778 36.8766C21.9778 36.3071 23.0292 35.8457 24.3262 35.8457C25.6232 35.8457 26.6743 36.3074 26.6743 36.8766Z" fill="#FF8A8A"/>
</g>
</g>
<g opacity="0.5">
<g opacity="0.5">
<path opacity="0.5" d="M37.7216 36.8766C37.7216 37.4473 36.6702 37.9078 35.3735 37.9078C34.0768 37.9078 33.0255 37.4461 33.0255 36.8766C33.0255 36.3071 34.0768 35.8457 35.3735 35.8457C36.6702 35.8457 37.7216 36.3074 37.7216 36.8766Z" fill="#FF8A8A"/>
</g>
</g>
<path d="M26.2303 27.9262C24.7026 28.0422 25.1618 29.812 23.6576 30.6771C22.0055 31.6269 22.2106 32.1958 22.6104 33.5271C23.2043 35.505 21.2515 35.9754 21.2515 35.9754C21.2269 35.9238 21.202 35.8703 21.1782 35.8162C21.1254 35.4354 21.086 35.0569 21.0605 34.6853C20.5583 27.4078 22.8838 23.1667 29.6678 23.4794C30.5101 26.6661 28.2744 27.7709 26.2303 27.9262Z" fill="#3F2037"/>
<path d="M32.9771 27.4039C35.0082 27.3714 34.2987 29.4741 35.4984 30.4413C36.9811 31.6371 37.4674 31.1289 36.8159 33.0882C36.1425 35.1143 38.0775 35.9755 38.0775 35.9755C38.1024 35.9238 38.127 35.8703 38.1511 35.8163C38.2036 35.4354 38.2433 35.0569 38.2688 34.6853C38.7711 27.4078 36.3095 23.186 29.6615 23.4794C28.8216 26.6662 30.9276 27.4363 32.9771 27.4039Z" fill="#3F2037"/>
<path d="M27.6439 30.4444C26.847 30.4628 25.1093 30.6754 24.3274 32.1227C24.3274 32.1227 26.123 31.2696 27.6258 31.3609C27.6932 31.3649 27.7606 31.3541 27.8232 31.3291C27.8859 31.3041 27.9422 31.2655 27.9883 31.2163C28.0343 31.167 28.0689 31.1081 28.0896 31.0439C28.1103 30.9797 28.1166 30.9117 28.1079 30.8448C28.0937 30.7326 28.0384 30.6295 27.9527 30.5556C27.867 30.4817 27.757 30.4421 27.6439 30.4444Z" fill="#3F2037"/>
<path d="M32.0558 30.4444C32.8527 30.4628 34.5904 30.6754 35.372 32.1227C35.372 32.1227 33.5764 31.2696 32.0739 31.3609C32.0065 31.365 31.9391 31.3542 31.8764 31.3292C31.8137 31.3042 31.7573 31.2657 31.7112 31.2164C31.6651 31.1671 31.6305 31.1082 31.6098 31.044C31.5891 30.9798 31.5828 30.9118 31.5915 30.8449C31.6056 30.7325 31.6609 30.6294 31.7467 30.5554C31.8325 30.4815 31.9426 30.4419 32.0558 30.4444Z" fill="#3F2037"/>
<path d="M30.0838 38.7299C29.7646 38.7206 29.4506 38.6458 29.1614 38.5104C29.1165 38.4909 29.0793 38.4575 29.0551 38.415C29.031 38.3725 29.0214 38.3233 29.0277 38.2749L29.4987 34.6568C29.5064 34.5975 29.5373 34.5438 29.5846 34.5073C29.632 34.4708 29.6919 34.4546 29.7512 34.4623C29.8104 34.47 29.8642 34.5009 29.9007 34.5483C29.9372 34.5956 29.9533 34.6555 29.9457 34.7148L29.4969 38.1601C29.673 38.2476 29.8683 38.2895 30.0648 38.282C30.2613 38.2745 30.4528 38.2178 30.6218 38.1172C30.6463 38.0994 30.6741 38.0867 30.7036 38.08C30.733 38.0732 30.7636 38.0724 30.7933 38.0776C30.8231 38.0829 30.8515 38.0941 30.8769 38.1106C30.9023 38.1271 30.924 38.1485 30.9409 38.1735C30.9578 38.1986 30.9695 38.2268 30.9753 38.2565C30.9811 38.2862 30.9808 38.3168 30.9745 38.3464C30.9682 38.3759 30.956 38.4039 30.9387 38.4287C30.9213 38.4535 30.8992 38.4745 30.8735 38.4905C30.6409 38.6491 30.3653 38.7326 30.0838 38.7299Z" fill="#FF8A8A"/>
<path d="M29.6369 41.1215C29.4508 41.1214 29.2649 41.1107 29.08 41.0893C28.4595 41.0208 27.8566 40.8406 27.3003 40.5573C27.2481 40.5282 27.2096 40.4796 27.1933 40.4221C27.177 40.3646 27.1842 40.303 27.2133 40.2508C27.2424 40.1986 27.2911 40.1602 27.3486 40.1438C27.4061 40.1275 27.4677 40.1347 27.5198 40.1638C27.6283 40.2239 30.2049 41.6159 32.4355 39.5523C32.4796 39.5136 32.5371 39.4936 32.5958 39.4966C32.6544 39.4997 32.7095 39.5255 32.7494 39.5685C32.7893 39.6116 32.8108 39.6685 32.8093 39.7272C32.8079 39.7859 32.7836 39.8417 32.7416 39.8827C31.9057 40.6814 30.793 41.1253 29.6369 41.1215Z" fill="#FF8A8A"/>
<path d="M30.0295 42.443C29.7001 42.4423 29.3724 42.3961 29.0557 42.3057C28.9994 42.2873 28.9527 42.2475 28.9255 42.1949C28.8984 42.1423 28.893 42.0811 28.9106 42.0246C28.9282 41.9681 28.9674 41.9208 29.0196 41.8929C29.0718 41.865 29.1329 41.8588 29.1896 41.8756C29.2023 41.8795 30.2335 42.1901 30.9595 41.7795C30.9852 41.7619 31.0143 41.7499 31.0449 41.7441C31.0755 41.7384 31.107 41.739 31.1374 41.7461C31.1677 41.7531 31.1963 41.7663 31.2212 41.785C31.2462 41.8036 31.267 41.8272 31.2824 41.8543C31.2978 41.8814 31.3074 41.9114 31.3106 41.9424C31.3138 41.9734 31.3105 42.0047 31.301 42.0343C31.2915 42.064 31.2759 42.0914 31.2553 42.1147C31.2347 42.1381 31.2094 42.1569 31.1811 42.17C30.827 42.3582 30.4305 42.4522 30.0295 42.443Z" fill="#FF8A8A"/>
<path d="M26.9921 33.9066C27.0029 34.5356 26.7713 35.048 26.4742 35.0547C26.1772 35.0613 25.9273 34.5542 25.9164 33.9252C25.9056 33.2962 26.1375 32.782 26.4343 32.7769C26.7311 32.7718 26.9813 33.2776 26.9921 33.9066Z" fill="#3F2037"/>
<path d="M32.6127 33.9066C32.6019 34.5356 32.8338 35.048 33.1306 35.0547C33.4274 35.0613 33.6776 34.5542 33.6884 33.9252C33.6992 33.2962 33.4676 32.782 33.1705 32.7769C32.8735 32.7718 32.625 33.2776 32.6127 33.9066Z" fill="#3F2037"/>
</g>
</svg>
