<svg width="24" height="24" viewBox="0 0 24 24" fill="none"
    xmlns="http://www.w3.org/2000/svg">
    <g clip-path="url(#clip0_258_4946)">
        <rect width="24" height="24" rx="12" fill="#051C2C"/>
        <path d="M16.6667 11.3334H12.6667V7.33341C12.6667 6.96523 12.3683 6.66675 12.0001 6.66675C11.6319 6.66675 11.3334 6.96523 11.3334 7.33341V11.3334H7.33341C6.96523 11.3334 6.66675 11.6319 6.66675 12.0001C6.66675 12.3683 6.96523 12.6667 7.33341 12.6667H11.3334V16.6667C11.3334 17.0349 11.6319 17.3334 12.0001 17.3334C12.3683 17.3334 12.6667 17.0349 12.6667 16.6667V12.6667H16.6667C17.0349 12.6667 17.3334 12.3683 17.3334 12.0001C17.3334 11.6319 17.0349 11.3334 16.6667 11.3334Z" fill="white"/>
    </g>
    <defs>
        <clipPath id="clip0_258_4946">
            <rect width="24" height="24" fill="white"/>
        </clipPath>
    </defs>
</svg>
