<svg width="36" height="36" viewBox="0 0 36 36" fill="none" xmlns="http://www.w3.org/2000/svg">
<g clip-path="url(#clip0_40_3865)">
<circle cx="18" cy="18" r="17.5" fill="white" stroke="#F1F1F5"/>
<path d="M20.2506 12.5447C20.1519 12.5441 20.054 12.563 19.9627 12.6003C19.8713 12.6377 19.7882 12.6926 19.7181 12.7622L15.2181 17.2622C15.0784 17.4027 15 17.5928 15 17.7909C15 17.989 15.0784 18.1791 15.2181 18.3197L19.7181 22.8197C19.8616 22.9425 20.0461 23.0067 20.2349 22.9994C20.4236 22.9921 20.6027 22.9139 20.7363 22.7803C20.8698 22.6468 20.9481 22.4677 20.9554 22.2789C20.9627 22.0902 20.8985 21.9056 20.7756 21.7622L16.8081 17.7947L20.7756 13.8272C20.8809 13.7227 20.9529 13.5894 20.9824 13.444C21.012 13.2986 20.9977 13.1478 20.9415 13.0105C20.8854 12.8732 20.7897 12.7557 20.6667 12.6728C20.5437 12.5899 20.3989 12.5453 20.2506 12.5447Z" fill="#06161C"/>
</g>
<defs>
<clipPath id="clip0_40_3865">
<rect width="36" height="36" fill="white"/>
</clipPath>
</defs>
</svg>
